# xmcd
#
# Track frame offsets:
# 150
# 25118
# 48527
# 72097
# 91243
# 117071
# 138834
# 162181
# 185841
# 207425
# 226191
# 256928
# 275462
# 301514
#
# Disc length: 4382 seconds
#
# Revision: 0
# Processed by: cddbd v1.5.1PL0 Copyright (c) Steve Scherf et al.
# Submitted via: Audion 3.0.2 (http://www.panic.com/audion/)
#
DISCID=b4111c0e
DTITLE=Robert Harris - Archangel
DYEAR=1900
DGENRE=
TTITLE0=Archangel 03 - 01
TTITLE1=Archangel 03 - 02
TTITLE2=Archangel 03 - 03
TTITLE3=Archangel 03 - 04
TTITLE4=Archangel 03 - 05
TTITLE5=Archangel 03 - 06
TTITLE6=Archangel 03 - 07
TTITLE7=Archangel 03 - 08
TTITLE8=Archangel 03 - 09
TTITLE9=Archangel 03 - 10
TTITLE10=Archangel 03 - 11
TTITLE11=Archangel 03 - 12
TTITLE12=Archangel 03 - 13
TTITLE13=Archangel 03 - 14
EXTD=
EXTT0=
EXTT1=
EXTT2=
EXTT3=
EXTT4=
EXTT5=
EXTT6=
EXTT7=
EXTT8=
EXTT9=
EXTT10=
EXTT11=
EXTT12=
EXTT13=
PLAYORDER=
